<?xml version="1.0" encoding="UTF-8"?>
<svg id="Layer_1" data-name="Layer 1" xmlns="http://www.w3.org/2000/svg" xmlns:xlink="http://www.w3.org/1999/xlink" viewBox="0 0 274.29 233.24">
  <defs>
    <style>
      .cls-1 {
        fill: #a542f3;
      }

      .cls-1, .cls-2, .cls-3, .cls-4, .cls-5, .cls-6 {
        stroke: #021908;
        stroke-miterlimit: 10;
      }

      .cls-2 {
        fill: #d51b74;
      }

      .cls-3 {
        fill: #2b9bf6;
      }

      .cls-4 {
        fill: #894024;
      }

      .cls-5 {
        fill: url(#linear-gradient);
      }

      .cls-6 {
        fill: #bbcb2f;
      }
    </style>
    <linearGradient id="linear-gradient" x1="50.79" y1="185.82" x2="177.48" y2="59.13" gradientUnits="userSpaceOnUse">
      <stop offset="0" stop-color="#021908"/>
      <stop offset=".04" stop-color="#213007"/>
      <stop offset=".1" stop-color="#4f5305"/>
      <stop offset=".16" stop-color="#797404"/>
      <stop offset=".23" stop-color="#9d8f03"/>
      <stop offset=".31" stop-color="#bba602"/>
      <stop offset=".39" stop-color="#d4b901"/>
      <stop offset=".49" stop-color="#e7c800"/>
      <stop offset=".59" stop-color="#f4d200"/>
      <stop offset=".73" stop-color="#fcd800"/>
      <stop offset="1" stop-color="#ffda00"/>
    </linearGradient>
  </defs>
  <path class="cls-5" d="m134.65,54.67l8.76,43.8c.63,3.15,4.96,9.13,14.98,9.4l38.47.16c26.95.16,61.28,4.81,8.33,23.48l-46.96,14.15c-2.97,1.49-4.56,4.63-3.94,7.78l8.58,43.83c1.38,7.06-7.57,11.53-13.09,6.54l-34.28-30.99c-2.47-2.23-6.14-2.73-9.12-1.26l-41.38,20.57c-6.66,3.31-14.07-3.41-10.84-9.83l20.1-39.89c1.45-2.87.76-6.32-1.69-8.56l-43-28.83c-18.67-14.42-11.11-24.82,17.49-17.96l44.45,9.4c3.36.46,6.61-1.17,8.07-4.03l20.27-39.81c3.26-6.41,13.38-5.02,14.79,2.04Z"/>
  <path class="cls-2" d="m244.58,32.38c-6.32,6.29-73.1,63.08-79.05,57.1-5.95-5.98,51.17-72.47,57.49-78.77,6.32-6.29,16.27-6.54,22.23-.56,5.95,5.98,5.65,15.93-.67,22.22Z"/>
  <path class="cls-1" d="m232.14,206.24c-6.95-3.86-72.12-46.99-68.47-53.57s74.74,25.89,81.69,29.75c6.95,3.86,9.63,12.32,5.98,18.9-3.65,6.58-12.25,8.79-19.2,4.93Z"/>
  <path class="cls-6" d="m96.9,218.11c.76-3.65,11.03-38.86,14.49-38.14,3.46.72-1.21,37.1-1.97,40.75-.76,3.65-4.18,6.03-7.64,5.31s-5.64-4.27-4.88-7.92Z"/>
  <path class="cls-3" d="m73.66,34.26c2.3,4.42,21.45,49.53,17.26,51.71-4.19,2.18-30.12-39.4-32.42-43.83-2.3-4.42-.77-9.77,3.42-11.95,4.19-2.18,9.44-.36,11.74,4.07Z"/>
  <path class="cls-4" d="m17.25,152.61c4.51-2.13,50.33-19.49,52.35-15.22,2.01,4.27-40.55,28.55-45.06,30.68s-9.8.39-11.81-3.88c-2.01-4.27.01-9.45,4.52-11.58Z"/>
</svg>