<?xml version="1.0" encoding="UTF-8"?>
<svg id="Layer_1" data-name="Layer 1" xmlns="http://www.w3.org/2000/svg" xmlns:xlink="http://www.w3.org/1999/xlink" viewBox="0 0 1033.71 524.57">
  <defs>
    <style>
      .cls-1 {
        fill: #a542f3;
      }

      .cls-1, .cls-2, .cls-3, .cls-4, .cls-5, .cls-6, .cls-7 {
        stroke: #021908;
        stroke-miterlimit: 10;
      }

      .cls-2 {
        fill: #d51b74;
      }

      .cls-3 {
        fill: #2b9bf6;
      }

      .cls-4 {
        fill: url(#linear-gradient-2);
      }

      .cls-5 {
        fill: #894024;
      }

      .cls-6 {
        fill: url(#linear-gradient);
      }

      .cls-7 {
        fill: #bbcb2f;
      }

      .cls-8 {
        fill: #021908;
      }
    </style>
    <linearGradient id="linear-gradient" x1="682.42" y1="231.18" x2="822.04" y2="91.57" gradientTransform="translate(8.86 -42.94) rotate(3.15)" gradientUnits="userSpaceOnUse">
      <stop offset="0" stop-color="#021908"/>
      <stop offset="0" stop-color="#091e07"/>
      <stop offset=".05" stop-color="#374106"/>
      <stop offset=".09" stop-color="#626204"/>
      <stop offset=".14" stop-color="#877f03"/>
      <stop offset=".19" stop-color="#a89702"/>
      <stop offset=".25" stop-color="#c3ac01"/>
      <stop offset=".32" stop-color="#d9bd01"/>
      <stop offset=".4" stop-color="#eaca00"/>
      <stop offset=".49" stop-color="#f6d300"/>
      <stop offset=".63" stop-color="#fdd800"/>
      <stop offset="1" stop-color="#ffda00"/>
    </linearGradient>
    <linearGradient id="linear-gradient-2" x1="267.59" y1="242.66" x2="343.9" y2="242.66" gradientUnits="userSpaceOnUse">
      <stop offset="0" stop-color="#021908"/>
      <stop offset=".07" stop-color="#172907"/>
      <stop offset=".42" stop-color="#797404"/>
      <stop offset=".7" stop-color="#c1ab01"/>
      <stop offset=".9" stop-color="#edcc00"/>
      <stop offset="1" stop-color="#ffda00"/>
    </linearGradient>
  </defs>
  <g>
    <path class="cls-8" d="m208.46,422.86c-3.25,0-6.3-.72-9.16-2.16-2.86-1.44-5.14-3.51-6.84-6.23-1.7-2.71-2.47-5.85-2.32-9.4.77-16.1,1.28-31.73,1.51-46.89.23-15.16.23-30.29,0-45.37-.23-15.08-.74-30.67-1.51-46.77-.16-3.73.62-6.86,2.32-9.4,1.7-2.54,4.02-4.57,6.96-6.1,2.93-1.52,6.03-2.29,9.28-2.29,5.1,0,9.16,1.61,12.18,4.83,3.01,3.22,4.37,7.54,4.06,12.96-.78,13.73-1.32,26.99-1.62,39.78-.31,12.8-.5,25.46-.58,38-.08,12.54-.12,25.5-.12,38.89,0,2.03.38,3.65,1.16,4.83.77,1.19,2.16,1.7,4.17,1.52,6.18-.34,12.56-.93,19.13-1.78,6.57-.85,13.02-1.69,19.37-2.54,3.71-.51,6.96.17,9.74,2.03,2.78,1.87,4.99,4.36,6.61,7.5,1.62,3.14,2.43,6.4,2.43,9.79,0,3.05-.78,5.89-2.32,8.51-1.55,2.63-3.67,4.75-6.38,6.35-2.71,1.61-5.91,2.5-9.62,2.67l-58.44,1.27Z"/>
    <path class="cls-8" d="m315.37,424.39c-3.4,0-6.57-.76-9.51-2.29-2.94-1.53-5.26-3.6-6.96-6.23-1.7-2.63-2.48-5.72-2.32-9.28.77-11.35,1.28-22.49,1.51-33.42.23-10.93.23-21.86,0-32.79-.23-10.93-.74-22.07-1.51-33.42-.16-3.73.62-6.86,2.32-9.4,1.7-2.54,4.02-4.58,6.96-6.1,2.94-1.52,6.11-2.29,9.51-2.29,4.79,0,8.66,1.61,11.6,4.83,2.94,3.22,4.41,7.46,4.41,12.71,0,11.35.04,22.54.12,33.55.08,11.02.27,21.99.58,32.92.31,10.93.85,22.07,1.62,33.42.15,3.56-.62,6.65-2.32,9.28-1.7,2.63-3.94,4.7-6.73,6.23-2.78,1.52-5.88,2.29-9.28,2.29Z"/>
    <path class="cls-8" d="m401.88,475.22c-6.19,0-11.91-.68-17.16-2.03-5.26-1.36-9.51-2.63-12.76-3.81-3.4-1.53-5.68-3.81-6.84-6.86-1.16-3.05-1.43-6.44-.81-10.17,1.08-5.08,3.17-8.81,6.26-11.18,3.09-2.38,6.49-2.8,10.21-1.27,2.93,1.02,6.11,2.29,9.51,3.81,3.4,1.52,7.27,2.29,11.6,2.29,4.95,0,8.73-1.02,11.36-3.05,2.63-2.03,4.52-4.92,5.68-8.64,1.16-3.73,1.89-8.05,2.2-12.96.15-2.2.04-3.69-.35-4.45-.39-.76-1.04-1.06-1.97-.89-.93,0-2.4.72-4.41,2.16-2.01,1.44-4.64,2.84-7.88,4.19-3.25,1.35-7.5,2.03-12.76,2.03-9.43,0-17.05-2.58-22.84-7.75-5.8-5.17-10.01-12.37-12.64-21.6-2.63-9.23-3.94-19.86-3.94-31.9v-6.35c0-6.95.81-14.32,2.44-22.11,1.62-7.79,4.41-15.16,8.35-22.11,3.94-6.95,9.28-12.58,16-16.9s15.19-6.48,25.4-6.48c7.73,0,14.46.64,20.18,1.91,5.72,1.27,10.9,2.84,15.54,4.7,4.02,1.7,7.46,4.15,10.32,7.37,2.86,3.22,4.13,7.29,3.83,12.2-.62,8.98-1.08,17.62-1.39,25.93-.31,8.3-.54,16.52-.7,24.65-.16,8.13-.23,16.35-.23,24.65v26.18c0,6.95-.81,13.89-2.44,20.84-1.62,6.95-4.45,13.26-8.46,18.94-4.02,5.68-9.36,10.21-16,13.6-6.65,3.39-15.08,5.08-25.28,5.08Zm-2.32-82.6c3.86,0,7.5-1.18,10.9-3.56,3.4-2.37,6.18-5.55,8.35-9.53,2.16-3.98,3.25-8.51,3.25-13.6,0-7.28.19-14.27.58-20.97.38-6.69.73-13.34,1.04-19.95,0-1.18-.2-2.07-.58-2.67-.39-.59-1.04-1.14-1.97-1.65-1.24-.51-3.13-1.02-5.68-1.52-2.55-.51-5.53-.76-8.93-.76-4.33,0-7.77,1.1-10.32,3.3-2.55,2.2-4.52,5.21-5.91,9.02s-2.32,7.97-2.78,12.45c-.46,4.49-.7,9.02-.7,13.6v6.35c0,10.67.89,18.26,2.67,22.75,1.78,4.49,5.14,6.74,10.09,6.74Z"/>
    <path class="cls-8" d="m496.03,424.39c-3.4,0-6.57-.76-9.51-2.29-2.94-1.53-5.26-3.6-6.96-6.23-1.7-2.63-2.48-5.72-2.32-9.28.77-17.11,1.31-33.93,1.62-50.45.31-16.52.5-33.13.58-49.82.08-16.69.12-33.51.12-50.45,0-5.25,1.47-9.49,4.41-12.71,2.94-3.22,6.96-4.83,12.06-4.83,3.4,0,6.53.76,9.39,2.29,2.86,1.53,5.14,3.6,6.84,6.23,1.7,2.63,2.4,5.81,2.09,9.53-.62,6.27-1.16,12.24-1.62,17.92-.46,5.68-.7,10.97-.7,15.89,0,3.05.15,5.08.46,6.1.31,1.02.93,1.52,1.85,1.52,1.08-.17,2.59-.97,4.52-2.41,1.93-1.44,4.6-2.84,8-4.19,3.4-1.35,7.73-2.03,12.99-2.03,13.92,0,23.96,4.66,30.15,13.98,6.18,9.32,9.28,24.15,9.28,44.48,0,7.12.04,13.81.12,20.08.08,6.27.27,12.5.58,18.68.31,6.19.85,12.84,1.62,19.95.46,3.56-.16,6.7-1.86,9.4-1.7,2.71-4.02,4.83-6.96,6.35-2.94,1.52-6.11,2.29-9.51,2.29s-6.65-.76-9.74-2.29c-3.09-1.53-5.49-3.64-7.19-6.35-1.7-2.71-2.32-5.85-1.86-9.4.77-7.12,1.31-13.76,1.62-19.95.31-6.18.5-12.41.58-18.68.08-6.27.12-12.96.12-20.08,0-7.79-.35-13.81-1.04-18.05-.7-4.23-1.97-7.16-3.83-8.77-1.86-1.61-4.49-2.41-7.88-2.41-3.71,0-7.23,1.36-10.55,4.07-3.33,2.71-6.07,6.31-8.23,10.8-2.17,4.49-3.25,9.28-3.25,14.36,0,7.12.04,13.81.12,20.08.08,6.27.27,12.5.58,18.68.31,6.19.85,12.84,1.62,19.95.46,3.56-.16,6.7-1.85,9.4-1.7,2.71-4.02,4.83-6.96,6.35-2.94,1.52-6.11,2.29-9.51,2.29Z"/>
    <path class="cls-8" d="m647.48,423.62c-8.97.51-16.39-.76-22.26-3.81-5.88-3.05-10.36-7.33-13.45-12.84-3.09-5.5-5.1-11.82-6.03-18.94s-1.01-14.4-.23-21.86c.62-5.42,1.12-10.46,1.51-15.12.38-4.66.66-9.36.81-14.11.15-4.74.23-9.74.23-15,0-1.18-.2-2.07-.58-2.67-.39-.59-.93-1.06-1.62-1.4-.7-.34-1.51-.85-2.43-1.52-3.4-.68-5.8-2.03-7.19-4.07s-2.09-4.66-2.09-7.88c0-3.05.7-5.59,2.09-7.62,1.39-2.03,3.79-3.3,7.19-3.81,1.39-.67,2.51-1.44,3.36-2.29.85-.85,1.28-2.03,1.28-3.56,0-2.2.04-4.53.12-6.99.08-2.45.12-4.79.12-6.99.46-4.57,2.09-8.22,4.87-10.93,2.78-2.71,6.57-4.07,11.36-4.07s8.35,1.27,11.13,3.81c2.78,2.54,4.41,6.35,4.87,11.44.15,2.03.19,4.15.12,6.35-.08,2.2-.12,4.32-.12,6.35,0,3.05,1.24,4.57,3.71,4.57,2.01,0,4.06.04,6.15.13,2.09.09,4.06.21,5.91.38,3.25.51,6.07,1.91,8.47,4.19,2.39,2.29,3.59,5.3,3.59,9.02s-1.2,7.5-3.59,10.8c-2.4,3.3-5.22,5.13-8.47,5.46-2.17,0-4.33-.08-6.49-.25-2.17-.17-4.33-.34-6.49-.51-1.08-.17-1.97.3-2.67,1.4-.7,1.1-1.2,2.76-1.51,4.96-.16,6.61-.35,13.09-.58,19.44-.23,6.35-.43,13.34-.58,20.97,0,6.61.23,11.65.7,15.12.46,3.48,1.35,5.68,2.67,6.61,1.31.93,3.36,1.31,6.15,1.14,3.55-.34,6.73,1.36,9.51,5.08,2.78,3.73,4.17,8.56,4.17,14.49,0,4.41-1.43,7.88-4.29,10.42-2.86,2.54-5.99,3.9-9.39,4.07Z"/>
    <path class="cls-8" d="m760.65,424.39c-3.4,0-6.57-.76-9.51-2.29-2.94-1.53-5.26-3.6-6.96-6.23-1.7-2.63-2.48-5.72-2.32-9.28.77-11.35,1.28-22.49,1.51-33.42.23-10.93.23-21.86,0-32.79-.23-10.93-.74-22.07-1.51-33.42-.16-3.73.62-6.86,2.32-9.4,1.7-2.54,4.02-4.58,6.96-6.1,2.94-1.52,6.11-2.29,9.51-2.29,4.79,0,8.66,1.61,11.6,4.83,2.94,3.22,4.41,7.46,4.41,12.71,0,11.35.04,22.54.12,33.55.08,11.02.27,21.99.58,32.92.31,10.93.85,22.07,1.62,33.42.15,3.56-.62,6.65-2.32,9.28-1.7,2.63-3.94,4.7-6.73,6.23-2.78,1.52-5.88,2.29-9.28,2.29Z"/>
    <path class="cls-8" d="m847.15,423.62c-8.97.51-16.39-.76-22.26-3.81-5.88-3.05-10.36-7.33-13.45-12.84-3.09-5.5-5.1-11.82-6.03-18.94s-1.01-14.4-.23-21.86c.62-5.42,1.12-10.46,1.51-15.12.38-4.66.66-9.36.81-14.11.15-4.74.23-9.74.23-15,0-1.18-.2-2.07-.58-2.67-.39-.59-.93-1.06-1.62-1.4-.7-.34-1.51-.85-2.43-1.52-3.4-.68-5.8-2.03-7.19-4.07s-2.09-4.66-2.09-7.88c0-3.05.7-5.59,2.09-7.62,1.39-2.03,3.79-3.3,7.19-3.81,1.39-.67,2.51-1.44,3.36-2.29.85-.85,1.28-2.03,1.28-3.56,0-2.2.04-4.53.12-6.99.08-2.45.12-4.79.12-6.99.46-4.57,2.09-8.22,4.87-10.93,2.78-2.71,6.57-4.07,11.36-4.07s8.35,1.27,11.13,3.81c2.78,2.54,4.41,6.35,4.87,11.44.15,2.03.19,4.15.12,6.35-.08,2.2-.12,4.32-.12,6.35,0,3.05,1.24,4.57,3.71,4.57,2.01,0,4.06.04,6.15.13,2.09.09,4.06.21,5.91.38,3.25.51,6.07,1.91,8.47,4.19,2.39,2.29,3.59,5.3,3.59,9.02s-1.2,7.5-3.59,10.8c-2.4,3.3-5.22,5.13-8.47,5.46-2.17,0-4.33-.08-6.49-.25-2.17-.17-4.33-.34-6.49-.51-1.08-.17-1.97.3-2.67,1.4-.7,1.1-1.2,2.76-1.51,4.96-.16,6.61-.35,13.09-.58,19.44-.23,6.35-.43,13.34-.58,20.97,0,6.61.23,11.65.7,15.12.46,3.48,1.35,5.68,2.67,6.61,1.31.93,3.36,1.31,6.15,1.14,3.55-.34,6.73,1.36,9.51,5.08,2.78,3.73,4.17,8.56,4.17,14.49,0,4.41-1.43,7.88-4.29,10.42-2.86,2.54-5.99,3.9-9.39,4.07Z"/>
  </g>
  <g>
    <path class="cls-6" d="m777.56,76.1l6.78,53.12c.49,3.82,4.76,11.28,15.43,12.27l41.04,2.73c28.74,1.97,65.1,9.81,7.51,28.71l-50.94,13.87c-3.26,1.59-5.14,5.25-4.66,9.07l6.58,53.14c1.06,8.56-8.75,13.33-14.35,6.98l-34.76-39.44c-2.5-2.84-6.39-3.69-9.66-2.11l-45.36,21.95c-7.3,3.53-14.82-5.02-10.98-12.51l23.79-46.52c1.71-3.35,1.19-7.53-1.3-10.38l-44.19-37.42c-19.08-18.53-10.4-30.5,19.72-20.39l46.88,14.21c3.56.77,7.13-.97,8.85-4.31l23.97-46.41c3.86-7.47,14.57-5.14,15.66,3.42Z"/>
    <path class="cls-2" d="m883.07,60.26c-7.11,7.13-81.7,70.84-87.7,63.27-6-7.57,58.85-83.56,65.97-90.68,7.11-7.13,17.75-6.77,23.75.8,6,7.57,5.1,19.48-2.02,26.61Z"/>
    <path class="cls-1" d="m872.69,264.34c-7.19-5.09-74.19-61.13-69.91-68.78,4.28-7.65,78.22,35.99,85.41,41.08,7.19,5.09,9.55,15.41,5.27,23.06-4.28,7.65-13.58,9.73-20.77,4.64Z"/>
    <path class="cls-7" d="m727.69,269.65c1.03-4.33,14.05-45.88,17.7-44.79,3.65,1.09-3.47,44.42-4.5,48.75-1.03,4.33-4.82,6.95-8.46,5.86-3.65-1.09-5.77-5.49-4.74-9.82Z"/>
    <path class="cls-3" d="m713.69,47.58c2.19,5.46,19.97,60.83,15.38,63.17-4.59,2.33-29.82-49.25-32.02-54.71-2.19-5.46-.25-11.77,4.35-14.11,4.59-2.33,10.1.2,12.29,5.65Z"/>
    <path class="cls-5" d="m646.54,185.82c4.94-2.25,54.85-20.05,56.75-14.8,1.9,5.25-44.95,31.57-49.88,33.82s-10.48-.18-12.37-5.43c-1.9-5.25.57-11.34,5.51-13.59Z"/>
  </g>
  <path class="cls-4" d="m296.26,205.03l14.39,16.31c1.04,1.17,2.71,1.55,4.14.93l19.99-8.57c3.22-1.38,6.33,2.16,4.55,5.17l-11.06,18.73c-.8,1.35-.64,3.05.39,4.23l14.33,16.37c2.31,2.64-.1,6.69-3.51,5.92l-21.23-4.73c-1.53-.34-3.1.34-3.9,1.68l-11.14,18.68c-1.79,3.01-6.39,1.97-6.72-1.51l-2.06-21.65c-.15-1.56-1.28-2.84-2.8-3.19l-21.21-4.82c-3.42-.78-3.85-5.47-.64-6.86l19.96-8.65c1.44-.62,2.31-2.1,2.17-3.65l-1.97-21.66c-.32-3.49,4.01-5.35,6.33-2.73Z"/>
  <path class="cls-2" d="m323.7,191.37c-.59,2.62-7.88,28.01-9.69,27.6-1.81-.41,2.55-26.46,3.14-29.09.59-2.62,2.54-4.42,4.35-4.01s2.79,2.87,2.2,5.49Z"/>
  <path class="cls-1" d="m357.23,246.38c-2.37-.39-25.41-5.53-25.14-7.17.27-1.63,23.74.86,26.11,1.25s4.08,2.03,3.81,3.67-2.41,2.64-4.78,2.26Z"/>
  <path class="cls-7" d="m327.21,282.7c-1.03-1.64-10.18-18.28-9.03-19s12.17,14.75,13.2,16.38c1.03,1.64.93,3.55-.22,4.27-1.15.72-2.92-.02-3.95-1.66Z"/>
  <path class="cls-5" d="m267.87,277.94c1.8-2.12,20.66-21.88,22.12-20.63s-15.03,23.01-16.84,25.13c-1.8,2.12-4.45,2.83-5.91,1.59-1.46-1.24-1.18-3.97.62-6.09Z"/>
  <path class="cls-3" d="m261.43,216.29c2.39.95,25.42,11.31,24.89,12.65-.53,1.34-24.42-6.84-26.81-7.79-2.39-.95-3.9-2.8-3.37-4.15.53-1.34,2.9-1.66,5.3-.72Z"/>
</svg>